<?xml version="1.0" encoding="UTF-8"?>
<svg id="Layer_1" data-name="Layer 1" xmlns="http://www.w3.org/2000/svg" xmlns:xlink="http://www.w3.org/1999/xlink" viewBox="0 0 200 200">
  <defs>
    <style>
      .cls-1 {
        fill: url(#linear-gradient);
      }

      .cls-2 {
        fill: url(#linear-gradient-8);
      }

      .cls-3 {
        fill: url(#linear-gradient-9);
      }

      .cls-4 {
        fill: url(#linear-gradient-3);
      }

      .cls-5 {
        fill: url(#linear-gradient-4);
      }

      .cls-6 {
        fill: url(#linear-gradient-2);
      }

      .cls-7 {
        fill: url(#linear-gradient-6);
      }

      .cls-8 {
        fill: url(#linear-gradient-7);
      }

      .cls-9 {
        fill: url(#linear-gradient-5);
      }
    </style>
    <linearGradient id="linear-gradient" x1="41.98" y1="6.05" x2="260.39" y2="288.47" gradientUnits="userSpaceOnUse">
      <stop offset="0" stop-color="#cc3c90"/>
      <stop offset=".4" stop-color="#008ed1"/>
      <stop offset=".54" stop-color="#2ba498"/>
      <stop offset="1" stop-color="#20a698"/>
    </linearGradient>
    <linearGradient id="linear-gradient-2" x1="16.96" y1="25.4" x2="235.36" y2="307.83" xlink:href="#linear-gradient"/>
    <linearGradient id="linear-gradient-3" x1="-11.27" y1="47.23" x2="207.14" y2="329.65" xlink:href="#linear-gradient"/>
    <linearGradient id="linear-gradient-4" x1="-10.3" y1="46.48" x2="208.11" y2="328.9" xlink:href="#linear-gradient"/>
    <linearGradient id="linear-gradient-5" x1="23.35" y1="20.46" x2="241.75" y2="302.89" xlink:href="#linear-gradient"/>
    <linearGradient id="linear-gradient-6" x1="48.37" y1="1.11" x2="266.78" y2="283.53" xlink:href="#linear-gradient"/>
    <linearGradient id="linear-gradient-7" x1="32.66" y1="13.26" x2="251.07" y2="295.68" xlink:href="#linear-gradient"/>
    <linearGradient id="linear-gradient-8" x1="76.59" y1="-20.71" x2="295" y2="261.71" xlink:href="#linear-gradient"/>
    <linearGradient id="linear-gradient-9" x1="75.58" y1="-19.93" x2="293.99" y2="262.49" xlink:href="#linear-gradient"/>
  </defs>
  <path class="cls-1" d="m69.49,47.46c3.87,2.23,7.59,5,11.06,8.22,7.32,6.79,12.71,14.82,16.57,22.1.21-9.32-1.02-21.87-7.25-32.66-3.24-5.62-7.84-10.77-13.65-15.31-5.91-4.61-12.21-7.92-17.49-10.2-3.54-1.53-7.58.76-8.03,4.6-.55,4.65-.85,10.23-.38,16.14,7.03,1.42,13.46,3.8,19.18,7.11Z"/>
  <path class="cls-6" d="m27.07,73.11c6.79-2.28,13.55-3.44,20.17-3.44,4.48,0,9.09.53,13.69,1.59,9.71,2.22,18.38,6.47,25.37,10.85-3.3-6.04-7.76-12.53-13.61-17.96-2.84-2.63-5.85-4.88-8.97-6.68-5.62-3.25-12.17-5.41-19.47-6.43-7.43-1.04-14.54-.75-20.25-.09-3.83.45-6.19,4.45-4.66,8,1.85,4.3,4.38,9.29,7.74,14.17Z"/>
  <path class="cls-4" d="m77.54,102.79c-6.89-.16-14.74.47-22.42,2.83-3.69,1.13-7.14,2.63-10.27,4.43-5.62,3.24-10.77,7.84-15.31,13.65-4.61,5.92-7.92,12.21-10.2,17.49-1.53,3.54.76,7.58,4.6,8.03,4.65.55,10.23.85,16.14.38,1.42-7.03,3.8-13.46,7.11-19.18,2.23-3.87,5-7.59,8.22-11.06,6.8-7.32,14.83-12.72,22.13-16.58Z"/>
  <path class="cls-5" d="m70.99,138.99c2.22-9.72,6.46-18.38,10.83-25.36-6.02,3.3-12.52,7.76-17.94,13.6-2.63,2.84-4.88,5.85-6.68,8.97-3.25,5.62-5.41,12.17-6.43,19.47-1.04,7.43-.75,14.54-.09,20.25.45,3.83,4.45,6.19,8,4.66,4.3-1.85,9.29-4.38,14.17-7.74-2.28-6.79-3.44-13.55-3.44-20.17,0-4.48.53-9.09,1.59-13.69Z"/>
  <path class="cls-9" d="m130.15,152.73c-3.87-2.23-7.59-5-11.06-8.22-7.33-6.8-12.72-14.83-16.58-22.13-.16,6.89.47,14.74,2.83,22.42,1.13,3.69,2.63,7.14,4.43,10.27,3.24,5.62,7.84,10.77,13.65,15.31,5.89,4.59,12.2,7.9,17.49,10.18,3.55,1.53,7.58-.76,8.03-4.6.55-4.65.84-10.23.38-16.12-7.03-1.42-13.46-3.8-19.18-7.11Z"/>
  <path class="cls-7" d="m172.57,127.08c-6.79,2.28-13.55,3.44-20.17,3.44-4.48,0-9.08-.53-13.69-1.59-9.72-2.22-18.38-6.46-25.36-10.83,3.3,6.02,7.76,12.52,13.6,17.94,2.84,2.63,5.85,4.88,8.97,6.68,5.62,3.25,12.17,5.41,19.47,6.43,7.43,1.04,14.54.75,20.25.09,3.83-.45,6.19-4.45,4.66-8-1.85-4.3-4.38-9.29-7.74-14.17Z"/>
  <path class="cls-8" d="m190.1,95.49c-3.76-2.8-8.44-5.85-13.79-8.4h0c-4.74,5.38-10.02,9.76-15.75,13.06-3.88,2.24-8.13,4.08-12.64,5.47-5.21,1.6-10.45,2.51-15.49,2.96-13.33-5.88-21.59-19.24-21.35-33.42,4.19-7.87,7.61-17.42,7.61-27.65,0-6.5-1.4-13.25-4.17-20.08-2.8-6.92-6.61-12.94-10.06-17.57-2.31-3.1-6.95-3.13-9.26-.04-2.8,3.76-5.84,8.44-8.39,13.78,5.38,4.74,9.76,10.02,13.06,15.75,5.23,9.06,7.6,18.97,8.42,28.16-3.29,7.46-8.98,13.55-16.32,17.36-5.38,2.76-11.24,4.1-17.12,3.98-4.94-2.63-10.52-4.96-16.51-6.33-3.76-.86-7.5-1.3-11.11-1.3-6.5,0-13.26,1.4-20.08,4.17-6.92,2.8-12.94,6.61-17.57,10.06-3.1,2.31-3.13,6.95-.04,9.26,3.76,2.8,8.44,5.84,13.78,8.39,4.74-5.38,10.02-9.76,15.75-13.06,3.88-2.24,8.13-4.08,12.64-5.47,5.21-1.6,10.46-2.51,15.5-2.96,7.48,3.29,13.57,8.98,17.38,16.33,2.76,5.37,4.1,11.22,3.98,17.09-2.63,4.94-4.96,10.53-6.34,16.54-.86,3.76-1.3,7.5-1.3,11.11,0,6.5,1.4,13.26,4.17,20.08,2.8,6.92,6.61,12.94,10.06,17.57,2.31,3.1,6.95,3.13,9.26.04,2.8-3.76,5.84-8.44,8.39-13.78-5.38-4.74-9.76-10.02-13.06-15.75-2.24-3.88-4.08-8.13-5.47-12.64-1.6-5.21-2.51-10.45-2.96-15.49,3.29-7.48,8.98-13.58,16.33-17.39,5.37-2.76,11.22-4.1,17.09-3.98,4.94,2.63,10.53,4.96,16.53,6.33,3.76.86,7.5,1.3,11.11,1.3,6.5,0,13.26-1.4,20.08-4.17,6.95-2.82,12.97-6.62,17.58-10.05,3.1-2.31,3.13-6.95.04-9.25Z"/>
  <path class="cls-2" d="m122.1,97.41c6.89.16,14.74-.47,22.42-2.83,3.69-1.13,7.14-2.63,10.27-4.43,5.62-3.24,10.77-7.84,15.31-13.65,4.59-5.89,7.9-12.2,10.18-17.49,1.53-3.55-.76-7.58-4.6-8.03-4.65-.55-10.23-.84-16.12-.38-1.42,7.03-3.8,13.46-7.11,19.18-2.23,3.87-5,7.59-8.22,11.06-6.8,7.32-14.83,12.72-22.13,16.58Z"/>
  <path class="cls-3" d="m117.74,86.61c6.04-3.3,12.57-7.77,18.03-13.65,2.63-2.84,4.88-5.85,6.68-8.97,3.25-5.62,5.41-12.17,6.43-19.47,0,0,0,0,0,0,1.03-7.39.74-14.51.07-20.24-.45-3.86-4.48-6.18-8.05-4.64-4.29,1.85-9.24,4.37-14.1,7.71,2.28,6.79,3.44,13.55,3.44,20.17,0,15.22-6.15,28.96-12.5,39.1Z"/>
</svg>