<?xml version="1.0" encoding="utf-8"?>
<!-- Generator: Adobe Illustrator 27.2.0, SVG Export Plug-In . SVG Version: 6.00 Build 0)  -->
<svg version="1.1" id="Layer_1" xmlns="http://www.w3.org/2000/svg" xmlns:xlink="http://www.w3.org/1999/xlink" x="0px" y="0px"
	 viewBox="0 0 200 200" style="enable-background:new 0 0 200 200;" xml:space="preserve">
<path d="M69.5,47.5c3.9,2.2,7.6,5,11.1,8.2c7.3,6.8,12.7,14.8,16.6,22.1c0.2-9.3-1-21.9-7.2-32.7c-3.2-5.6-7.8-10.8-13.7-15.3
	c-5.9-4.6-12.2-7.9-17.5-10.2c-3.5-1.5-7.6,0.8-8,4.6c-0.5,4.6-0.8,10.2-0.4,16.1C57.3,41.8,63.8,44.1,69.5,47.5L69.5,47.5z"/>
<path d="M27.1,73.1c6.8-2.3,13.5-3.4,20.2-3.4c4.5,0,9.1,0.5,13.7,1.6c9.7,2.2,18.4,6.5,25.4,10.8c-3.3-6-7.8-12.5-13.6-18
	c-2.8-2.6-5.8-4.9-9-6.7c-5.6-3.2-12.2-5.4-19.5-6.4c-7.4-1-14.5-0.8-20.2-0.1c-3.8,0.5-6.2,4.5-4.7,8
	C21.2,63.2,23.7,68.2,27.1,73.1L27.1,73.1z"/>
<path d="M77.5,102.8c-6.9-0.2-14.7,0.5-22.4,2.8c-3.7,1.1-7.1,2.6-10.3,4.4c-5.6,3.2-10.8,7.8-15.3,13.7
	c-4.6,5.9-7.9,12.2-10.2,17.5c-1.5,3.5,0.8,7.6,4.6,8c4.6,0.6,10.2,0.9,16.1,0.4c1.4-7,3.8-13.5,7.1-19.2c2.2-3.9,5-7.6,8.2-11.1
	C62.2,112,70.2,106.6,77.5,102.8L77.5,102.8z"/>
<path d="M71,139c2.2-9.7,6.5-18.4,10.8-25.4c-6,3.3-12.5,7.8-17.9,13.6c-2.6,2.8-4.9,5.8-6.7,9c-3.2,5.6-5.4,12.2-6.4,19.5
	c-1,7.4-0.8,14.5-0.1,20.2c0.5,3.8,4.5,6.2,8,4.7c4.3-1.9,9.3-4.4,14.2-7.7c-2.3-6.8-3.4-13.6-3.4-20.2
	C69.4,148.2,69.9,143.6,71,139L71,139z"/>
<path d="M130.1,152.7c-3.9-2.2-7.6-5-11.1-8.2c-7.3-6.8-12.7-14.8-16.6-22.1c-0.2,6.9,0.5,14.7,2.8,22.4c1.1,3.7,2.6,7.1,4.4,10.3
	c3.2,5.6,7.8,10.8,13.7,15.3c5.9,4.6,12.2,7.9,17.5,10.2c3.6,1.5,7.6-0.8,8-4.6c0.6-4.6,0.8-10.2,0.4-16.1
	C142.3,158.4,135.9,156,130.1,152.7L130.1,152.7z"/>
<path d="M172.6,127.1c-6.8,2.3-13.6,3.4-20.2,3.4c-4.5,0-9.1-0.5-13.7-1.6c-9.7-2.2-18.4-6.5-25.4-10.8c3.3,6,7.8,12.5,13.6,17.9
	c2.8,2.6,5.8,4.9,9,6.7c5.6,3.2,12.2,5.4,19.5,6.4c7.4,1,14.5,0.8,20.2,0.1c3.8-0.4,6.2-4.4,4.7-8
	C178.4,136.9,175.9,131.9,172.6,127.1L172.6,127.1z"/>
<path d="M190.1,95.5c-3.8-2.8-8.4-5.8-13.8-8.4l0,0c-4.7,5.4-10,9.8-15.8,13.1c-3.9,2.2-8.1,4.1-12.6,5.5c-5.2,1.6-10.4,2.5-15.5,3
	c-13.3-5.9-21.6-19.2-21.3-33.4c4.2-7.9,7.6-17.4,7.6-27.6c0-6.5-1.4-13.2-4.2-20.1c-2.8-6.9-6.6-12.9-10.1-17.6
	c-2.3-3.1-6.9-3.1-9.3,0c-2.8,3.8-5.8,8.4-8.4,13.8c5.4,4.7,9.8,10,13.1,15.8c5.2,9.1,7.6,19,8.4,28.2C105,75,99.3,81.1,92,84.9
	c-5.4,2.8-11.2,4.1-17.1,4c-4.9-2.6-10.5-5-16.5-6.3c-3.8-0.9-7.5-1.3-11.1-1.3c-6.5,0-13.3,1.4-20.1,4.2
	C20.2,88.2,14.2,92,9.6,95.4c-3.1,2.3-3.1,6.9,0,9.3c3.8,2.8,8.4,5.8,13.8,8.4c4.7-5.4,10-9.8,15.8-13.1c3.9-2.2,8.1-4.1,12.6-5.5
	c5.2-1.6,10.5-2.5,15.5-3c7.5,3.3,13.6,9,17.4,16.3c2.8,5.4,4.1,11.2,4,17.1c-2.6,4.9-5,10.5-6.3,16.5c-0.9,3.8-1.3,7.5-1.3,11.1
	c0,6.5,1.4,13.3,4.2,20.1c2.8,6.9,6.6,12.9,10.1,17.6c2.3,3.1,6.9,3.1,9.3,0c2.8-3.8,5.8-8.4,8.4-13.8c-5.4-4.7-9.8-10-13.1-15.8
	c-2.2-3.9-4.1-8.1-5.5-12.6c-1.6-5.2-2.5-10.4-3-15.5c3.3-7.5,9-13.6,16.3-17.4c5.4-2.8,11.2-4.1,17.1-4c4.9,2.6,10.5,5,16.5,6.3
	c3.8,0.9,7.5,1.3,11.1,1.3c6.5,0,13.3-1.4,20.1-4.2c6.9-2.8,13-6.6,17.6-10.1C193.1,102.4,193.2,97.8,190.1,95.5L190.1,95.5z"/>
<path d="M122.1,97.4c6.9,0.2,14.7-0.5,22.4-2.8c3.7-1.1,7.1-2.6,10.3-4.4c5.6-3.2,10.8-7.8,15.3-13.7c4.6-5.9,7.9-12.2,10.2-17.5
	c1.5-3.5-0.8-7.6-4.6-8c-4.6-0.5-10.2-0.8-16.1-0.4c-1.4,7-3.8,13.5-7.1,19.2c-2.2,3.9-5,7.6-8.2,11.1
	C137.4,88.2,129.4,93.6,122.1,97.4L122.1,97.4z"/>
<path d="M117.7,86.6c6-3.3,12.6-7.8,18-13.7c2.6-2.8,4.9-5.8,6.7-9c3.2-5.6,5.4-12.2,6.4-19.5l0,0c1-7.4,0.7-14.5,0.1-20.2
	c-0.4-3.9-4.5-6.2-8.1-4.6c-4.3,1.9-9.2,4.4-14.1,7.7c2.3,6.8,3.4,13.6,3.4,20.2C130.2,62.7,124.1,76.5,117.7,86.6L117.7,86.6z"/>
</svg>
