<?xml version="1.0" encoding="UTF-8"?>
<svg id="Layer_1" data-name="Layer 1" xmlns="http://www.w3.org/2000/svg" viewBox="0 0 640.8 147.42">
  <defs>
    <style>
      .cls-1 {
        letter-spacing: -.02em;
      }

      .cls-2 {
        letter-spacing: -.04em;
      }

      .cls-3, .cls-4 {
        fill: #fff;
      }

      .cls-5 {
        letter-spacing: -.02em;
      }

      .cls-6 {
        letter-spacing: -.06em;
      }

      .cls-7 {
        letter-spacing: -.04em;
      }

      .cls-8 {
        letter-spacing: .06em;
      }

      .cls-9 {
        letter-spacing: -.03em;
      }

      .cls-10 {
        letter-spacing: -.03em;
      }

      .cls-11 {
        letter-spacing: 0em;
      }

      .cls-12 {
        letter-spacing: -.03em;
      }

      .cls-4 {
        font-family: BigCaslon-Medium, 'Big Caslon';
        font-size: 85px;
        font-weight: 500;
      }
    </style>
  </defs>
  <g>
    <path class="cls-3" d="m48.81,36.5c2.71,1.56,5.31,3.5,7.74,5.75,5.12,4.75,8.9,10.38,11.6,15.47.15-6.52-.71-15.31-5.07-22.86-2.27-3.93-5.49-7.54-9.56-10.71-4.14-3.23-8.55-5.54-12.24-7.14-2.48-1.07-5.31.53-5.62,3.22-.38,3.26-.59,7.16-.27,11.3,4.92.99,9.43,2.66,13.43,4.97Z"/>
    <path class="cls-3" d="m19.12,54.46c4.75-1.6,9.49-2.41,14.12-2.41,3.14,0,6.36.37,9.58,1.11,6.8,1.56,12.87,4.53,17.76,7.59-2.31-4.23-5.43-8.77-9.53-12.57-1.99-1.84-4.1-3.42-6.28-4.68-3.93-2.27-8.52-3.79-13.63-4.5-5.2-.73-10.17-.53-14.17-.06-2.68.31-4.33,3.12-3.26,5.6,1.3,3.01,3.07,6.5,5.42,9.92Z"/>
    <path class="cls-3" d="m54.44,75.23c-4.82-.11-10.32.33-15.69,1.98-2.58.79-5,1.84-7.19,3.1-3.93,2.27-7.54,5.49-10.71,9.56-3.23,4.14-5.54,8.55-7.14,12.24-1.07,2.48.53,5.31,3.22,5.62,3.26.38,7.16.59,11.3.27.99-4.92,2.66-9.43,4.98-13.43,1.56-2.71,3.5-5.31,5.75-7.74,4.76-5.13,10.38-8.9,15.49-11.61Z"/>
    <path class="cls-3" d="m49.86,100.57c1.56-6.81,4.52-12.87,7.58-17.75-4.22,2.31-8.76,5.43-12.56,9.52-1.84,1.98-3.42,4.1-4.68,6.28-2.27,3.93-3.79,8.52-4.5,13.63-.73,5.2-.53,10.18-.06,14.17.31,2.68,3.12,4.33,5.6,3.26,3.01-1.3,6.5-3.07,9.92-5.42-1.6-4.75-2.41-9.49-2.41-14.12,0-3.14.37-6.36,1.11-9.58Z"/>
    <path class="cls-3" d="m91.27,110.19c-2.71-1.56-5.31-3.5-7.74-5.75-5.13-4.76-8.9-10.38-11.61-15.49-.11,4.82.33,10.32,1.98,15.69.79,2.58,1.84,5,3.1,7.19,2.27,3.93,5.49,7.54,9.56,10.71,4.12,3.21,8.54,5.53,12.24,7.13,2.48,1.07,5.31-.53,5.62-3.22.38-3.26.59-7.16.27-11.29-4.92-.99-9.42-2.66-13.43-4.98Z"/>
    <path class="cls-3" d="m120.96,92.23c-4.75,1.6-9.49,2.41-14.12,2.41-3.14,0-6.36-.37-9.58-1.11-6.81-1.56-12.87-4.52-17.75-7.58,2.31,4.22,5.43,8.76,9.52,12.56,1.98,1.84,4.1,3.42,6.28,4.68,3.93,2.27,8.52,3.79,13.63,4.5,5.2.73,10.17.53,14.17.06,2.68-.31,4.33-3.12,3.26-5.6-1.3-3.01-3.07-6.5-5.42-9.92Z"/>
    <path class="cls-3" d="m133.24,70.12c-2.63-1.96-5.91-4.1-9.65-5.88h0c-3.32,3.76-7.02,6.83-11.02,9.14-2.71,1.57-5.69,2.85-8.85,3.83-3.64,1.12-7.32,1.75-10.84,2.07-9.33-4.11-15.12-13.47-14.94-23.39,2.94-5.51,5.33-12.19,5.33-19.35,0-4.55-.98-9.28-2.92-14.06-1.96-4.85-4.63-9.06-7.04-12.3-1.61-2.17-4.86-2.19-6.48-.03-1.96,2.63-4.09,5.91-5.88,9.64,3.76,3.32,6.83,7.02,9.14,11.02,3.66,6.34,5.32,13.28,5.9,19.71-2.3,5.23-6.29,9.49-11.42,12.15-3.77,1.93-7.87,2.87-11.99,2.79-3.46-1.84-7.37-3.47-11.56-4.43-2.63-.6-5.25-.91-7.78-.91-4.55,0-9.28.98-14.06,2.92-4.85,1.96-9.06,4.63-12.3,7.04-2.17,1.61-2.19,4.86-.03,6.48,2.63,1.96,5.91,4.09,9.64,5.88,3.32-3.76,7.02-6.83,11.02-9.14,2.71-1.57,5.69-2.85,8.85-3.83,3.65-1.12,7.32-1.76,10.85-2.07,5.23,2.3,9.5,6.29,12.17,11.43,1.93,3.76,2.87,7.85,2.79,11.96-1.84,3.46-3.47,7.37-4.44,11.58-.6,2.63-.91,5.25-.91,7.78,0,4.55.98,9.28,2.92,14.06,1.96,4.85,4.63,9.06,7.04,12.3,1.61,2.17,4.86,2.19,6.48.03,1.96-2.63,4.09-5.91,5.88-9.64-3.76-3.32-6.83-7.02-9.14-11.02-1.57-2.71-2.85-5.69-3.83-8.85-1.12-3.64-1.75-7.31-2.07-10.84,2.3-5.24,6.29-9.5,11.43-12.17,3.76-1.93,7.85-2.87,11.96-2.79,3.45,1.84,7.37,3.47,11.57,4.43,2.63.6,5.25.91,7.78.91,4.55,0,9.28-.98,14.06-2.92,4.87-1.97,9.08-4.63,12.31-7.03,2.17-1.61,2.19-4.86.03-6.48Z"/>
    <path class="cls-3" d="m85.64,71.46c4.82.11,10.32-.33,15.69-1.98,2.58-.79,5-1.84,7.19-3.1,3.93-2.27,7.54-5.49,10.71-9.56,3.21-4.12,5.53-8.54,7.13-12.24,1.07-2.48-.53-5.31-3.22-5.62-3.26-.38-7.16-.59-11.29-.27-.99,4.92-2.66,9.43-4.98,13.43-1.56,2.71-3.5,5.31-5.75,7.74-4.76,5.13-10.38,8.9-15.49,11.61Z"/>
    <path class="cls-3" d="m82.59,63.9c4.23-2.31,8.8-5.44,12.62-9.55,1.84-1.98,3.42-4.1,4.68-6.28,2.27-3.93,3.79-8.52,4.5-13.63,0,0,0,0,0,0,.72-5.18.52-10.16.05-14.17-.32-2.7-3.14-4.32-5.64-3.25-3,1.3-6.47,3.06-9.87,5.4,1.6,4.75,2.41,9.49,2.41,14.12,0,10.66-4.3,20.27-8.75,27.37Z"/>
  </g>
  <text class="cls-4" transform="translate(151.81 104.76)"><tspan class="cls-12" x="0" y="0">O</tspan><tspan class="cls-9" x="65.94" y="0">m</tspan><tspan class="cls-5" x="131.26" y="0">n</tspan><tspan class="cls-1" x="174.04" y="0">i</tspan><tspan class="cls-6" x="193.64" y="0">M</tspan><tspan class="cls-10" x="272.78" y="0">e</tspan><tspan class="cls-2" x="306.9" y="0">m</tspan><tspan class="cls-7" x="370.89" y="0">o</tspan><tspan class="cls-8" x="410.63" y="0">r</tspan><tspan class="cls-11" x="446.08" y="0">y</tspan></text>
</svg>