<?xml version="1.0" encoding="utf-8"?>
<!-- Generator: Adobe Illustrator 27.2.0, SVG Export Plug-In . SVG Version: 6.00 Build 0)  -->
<svg version="1.1" id="Layer_1" xmlns="http://www.w3.org/2000/svg" xmlns:xlink="http://www.w3.org/1999/xlink" x="0px" y="0px"
	 viewBox="0 0 640.8 147.4" style="enable-background:new 0 0 640.8 147.4;" xml:space="preserve">
<style type="text/css">
	.st0{fill:url(#SVGID_1_);}
	.st1{fill:url(#SVGID_00000023257179501623074170000015896823230722364303_);}
	.st2{fill:url(#SVGID_00000089536944725496930190000018007234374681077635_);}
	.st3{fill:url(#SVGID_00000116953359045635054670000008176735672047558315_);}
	.st4{fill:url(#SVGID_00000181806229177811130600000002144441833915582634_);}
	.st5{fill:url(#SVGID_00000070797195625878566970000003570749492889184940_);}
	.st6{fill:url(#SVGID_00000041258494237556126680000003021949126262908088_);}
	.st7{fill:url(#SVGID_00000072980362017570941960000010511062509169246888_);}
	.st8{fill:url(#SVGID_00000016767100851960643240000015995908198828148907_);}
	.st9{fill:#FFFFFF;}
	.st10{font-family:'BigCaslon-Medium';}
	.st11{font-size:85px;}
	.st12{letter-spacing:-2;}
	.st13{letter-spacing:-1;}
	.st14{letter-spacing:-5;}
	.st15{letter-spacing:-3;}
	.st16{letter-spacing:5;}
</style>
<g>
	
		<linearGradient id="SVGID_1_" gradientUnits="userSpaceOnUse" x1="29.5544" y1="139.7848" x2="182.4444" y2="-57.9152" gradientTransform="matrix(1 0 0 -1 0 147.2912)">
		<stop  offset="0" style="stop-color:#CC3C90"/>
		<stop  offset="0.4" style="stop-color:#008ED1"/>
		<stop  offset="0.54" style="stop-color:#2BA498"/>
		<stop  offset="1" style="stop-color:#20A698"/>
	</linearGradient>
	<path class="st0" d="M48.8,36.5c2.7,1.6,5.3,3.5,7.7,5.8c5.1,4.8,8.9,10.4,11.6,15.5c0.2-6.5-0.7-15.3-5.1-22.9
		c-2.3-3.9-5.5-7.5-9.6-10.7c-4.1-3.2-8.5-5.5-12.2-7.1c-2.5-1.1-5.3,0.5-5.6,3.2c-0.4,3.3-0.6,7.2-0.3,11.3
		C40.3,32.5,44.8,34.2,48.8,36.5L48.8,36.5z"/>
	
		<linearGradient id="SVGID_00000034053347720536465400000011825547899464602775_" gradientUnits="userSpaceOnUse" x1="12.041" y1="126.2321" x2="164.921" y2="-71.4579" gradientTransform="matrix(1 0 0 -1 0 147.2912)">
		<stop  offset="0" style="stop-color:#CC3C90"/>
		<stop  offset="0.4" style="stop-color:#008ED1"/>
		<stop  offset="0.54" style="stop-color:#2BA498"/>
		<stop  offset="1" style="stop-color:#20A698"/>
	</linearGradient>
	<path style="fill:url(#SVGID_00000034053347720536465400000011825547899464602775_);" d="M19.1,54.5c4.8-1.6,9.5-2.4,14.1-2.4
		c3.1,0,6.4,0.4,9.6,1.1c6.8,1.6,12.9,4.5,17.8,7.6c-2.3-4.2-5.4-8.8-9.5-12.6c-2-1.8-4.1-3.4-6.3-4.7c-3.9-2.3-8.5-3.8-13.6-4.5
		C25.9,38.3,21,38.5,17,38.9c-2.7,0.3-4.3,3.1-3.3,5.6C15,47.5,16.8,51,19.1,54.5L19.1,54.5z"/>
	
		<linearGradient id="SVGID_00000170276673988447265390000013608916258729054629_" gradientUnits="userSpaceOnUse" x1="-7.7161" y1="110.9544" x2="145.1739" y2="-86.7356" gradientTransform="matrix(1 0 0 -1 0 147.2912)">
		<stop  offset="0" style="stop-color:#CC3C90"/>
		<stop  offset="0.4" style="stop-color:#008ED1"/>
		<stop  offset="0.54" style="stop-color:#2BA498"/>
		<stop  offset="1" style="stop-color:#20A698"/>
	</linearGradient>
	<path style="fill:url(#SVGID_00000170276673988447265390000013608916258729054629_);" d="M54.4,75.2c-4.8-0.1-10.3,0.3-15.7,2
		c-2.6,0.8-5,1.8-7.2,3.1c-3.9,2.3-7.5,5.5-10.7,9.6c-3.2,4.1-5.5,8.6-7.1,12.2c-1.1,2.5,0.5,5.3,3.2,5.6c3.3,0.4,7.2,0.6,11.3,0.3
		c1-4.9,2.7-9.4,5-13.4c1.6-2.7,3.5-5.3,5.8-7.7C43.7,81.7,49.3,77.9,54.4,75.2L54.4,75.2z"/>
	
		<linearGradient id="SVGID_00000148627811442757949730000006013727974910782648_" gradientUnits="userSpaceOnUse" x1="-7.0398" y1="111.4815" x2="145.8402" y2="-86.2185" gradientTransform="matrix(1 0 0 -1 0 147.2912)">
		<stop  offset="0" style="stop-color:#CC3C90"/>
		<stop  offset="0.4" style="stop-color:#008ED1"/>
		<stop  offset="0.54" style="stop-color:#2BA498"/>
		<stop  offset="1" style="stop-color:#20A698"/>
	</linearGradient>
	<path style="fill:url(#SVGID_00000148627811442757949730000006013727974910782648_);" d="M49.9,100.6c1.6-6.8,4.5-12.9,7.6-17.8
		c-4.2,2.3-8.8,5.4-12.6,9.5c-1.8,2-3.4,4.1-4.7,6.3c-2.3,3.9-3.8,8.5-4.5,13.6c-0.7,5.2-0.5,10.2-0.1,14.2c0.3,2.7,3.1,4.3,5.6,3.3
		c3-1.3,6.5-3.1,9.9-5.4c-1.6-4.8-2.4-9.5-2.4-14.1C48.7,107,49.1,103.8,49.9,100.6L49.9,100.6z"/>
	
		<linearGradient id="SVGID_00000080174682890111698600000010251889003678076596_" gradientUnits="userSpaceOnUse" x1="16.5067" y1="129.6888" x2="169.3867" y2="-68.0112" gradientTransform="matrix(1 0 0 -1 0 147.2912)">
		<stop  offset="0" style="stop-color:#CC3C90"/>
		<stop  offset="0.4" style="stop-color:#008ED1"/>
		<stop  offset="0.54" style="stop-color:#2BA498"/>
		<stop  offset="1" style="stop-color:#20A698"/>
	</linearGradient>
	<path style="fill:url(#SVGID_00000080174682890111698600000010251889003678076596_);" d="M91.3,110.2c-2.7-1.6-5.3-3.5-7.7-5.8
		c-5.1-4.8-8.9-10.4-11.6-15.5c-0.1,4.8,0.3,10.3,2,15.7c0.8,2.6,1.8,5,3.1,7.2c2.3,3.9,5.5,7.5,9.6,10.7c4.1,3.2,8.5,5.5,12.2,7.1
		c2.5,1.1,5.3-0.5,5.6-3.2c0.4-3.3,0.6-7.2,0.3-11.3C99.8,114.2,95.3,112.5,91.3,110.2L91.3,110.2z"/>
	
		<linearGradient id="SVGID_00000175285617364050782670000008561890228408448929_" gradientUnits="userSpaceOnUse" x1="34.0262" y1="143.2384" x2="186.9062" y2="-54.4616" gradientTransform="matrix(1 0 0 -1 0 147.2912)">
		<stop  offset="0" style="stop-color:#CC3C90"/>
		<stop  offset="0.4" style="stop-color:#008ED1"/>
		<stop  offset="0.54" style="stop-color:#2BA498"/>
		<stop  offset="1" style="stop-color:#20A698"/>
	</linearGradient>
	<path style="fill:url(#SVGID_00000175285617364050782670000008561890228408448929_);" d="M121,92.2c-4.8,1.6-9.5,2.4-14.1,2.4
		c-3.1,0-6.4-0.4-9.6-1.1C90.4,92,84.4,89,79.5,85.9c2.3,4.2,5.4,8.8,9.5,12.6c2,1.8,4.1,3.4,6.3,4.7c3.9,2.3,8.5,3.8,13.6,4.5
		c5.2,0.7,10.2,0.5,14.2,0.1c2.7-0.3,4.3-3.1,3.3-5.6C125.1,99.1,123.3,95.6,121,92.2L121,92.2z"/>
	
		<linearGradient id="SVGID_00000068655648103807082860000008543402428989588414_" gradientUnits="userSpaceOnUse" x1="23.0307" y1="134.7319" x2="175.9207" y2="-62.9581" gradientTransform="matrix(1 0 0 -1 0 147.2912)">
		<stop  offset="0" style="stop-color:#CC3C90"/>
		<stop  offset="0.4" style="stop-color:#008ED1"/>
		<stop  offset="0.54" style="stop-color:#2BA498"/>
		<stop  offset="1" style="stop-color:#20A698"/>
	</linearGradient>
	<path style="fill:url(#SVGID_00000068655648103807082860000008543402428989588414_);" d="M133.2,70.1c-2.6-2-5.9-4.1-9.7-5.9l0,0
		c-3.3,3.8-7,6.8-11,9.1c-2.7,1.6-5.7,2.8-8.8,3.8c-3.6,1.1-7.3,1.8-10.8,2.1c-9.3-4.1-15.1-13.5-14.9-23.4
		c2.9-5.5,5.3-12.2,5.3-19.3c0-4.6-1-9.3-2.9-14.1c-2-4.9-4.6-9.1-7-12.3c-1.6-2.2-4.9-2.2-6.5,0c-2,2.6-4.1,5.9-5.9,9.6
		c3.8,3.3,6.8,7,9.1,11c3.7,6.3,5.3,13.3,5.9,19.7c-2.3,5.2-6.3,9.5-11.4,12.1c-3.8,1.9-7.9,2.9-12,2.8C49.1,63.6,45.2,62,41,61
		c-2.6-0.6-5.2-0.9-7.8-0.9c-4.5,0-9.3,1-14.1,2.9c-4.9,2-9.1,4.6-12.3,7c-2.2,1.6-2.2,4.9,0,6.5c2.6,2,5.9,4.1,9.6,5.9
		c3.3-3.8,7-6.8,11-9.1c2.7-1.6,5.7-2.8,8.9-3.8c3.7-1.1,7.3-1.8,10.8-2.1c5.2,2.3,9.5,6.3,12.2,11.4c1.9,3.8,2.9,7.8,2.8,12
		c-1.8,3.5-3.5,7.4-4.4,11.6c-0.6,2.6-0.9,5.2-0.9,7.8c0,4.6,1,9.3,2.9,14.1c2,4.9,4.6,9.1,7,12.3c1.6,2.2,4.9,2.2,6.5,0
		c2-2.6,4.1-5.9,5.9-9.6c-3.8-3.3-6.8-7-9.1-11c-1.6-2.7-2.8-5.7-3.8-8.8c-1.1-3.6-1.8-7.3-2.1-10.8c2.3-5.2,6.3-9.5,11.4-12.2
		c3.8-1.9,7.8-2.9,12-2.8c3.4,1.8,7.4,3.5,11.6,4.4c2.6,0.6,5.2,0.9,7.8,0.9c4.6,0,9.3-1,14.1-2.9c4.9-2,9.1-4.6,12.3-7
		C135.4,75,135.4,71.8,133.2,70.1L133.2,70.1z"/>
	
		<linearGradient id="SVGID_00000030471216016057086540000016704680361195669399_" gradientUnits="userSpaceOnUse" x1="53.775" y1="158.5075" x2="206.655" y2="-39.1825" gradientTransform="matrix(1 0 0 -1 0 147.2912)">
		<stop  offset="0" style="stop-color:#CC3C90"/>
		<stop  offset="0.4" style="stop-color:#008ED1"/>
		<stop  offset="0.54" style="stop-color:#2BA498"/>
		<stop  offset="1" style="stop-color:#20A698"/>
	</linearGradient>
	<path style="fill:url(#SVGID_00000030471216016057086540000016704680361195669399_);" d="M85.6,71.5c4.8,0.1,10.3-0.3,15.7-2
		c2.6-0.8,5-1.8,7.2-3.1c3.9-2.3,7.5-5.5,10.7-9.6c3.2-4.1,5.5-8.5,7.1-12.2c1.1-2.5-0.5-5.3-3.2-5.6c-3.3-0.4-7.2-0.6-11.3-0.3
		c-1,4.9-2.7,9.4-5,13.4c-1.6,2.7-3.5,5.3-5.8,7.7C96.4,65,90.7,68.8,85.6,71.5L85.6,71.5z"/>
	
		<linearGradient id="SVGID_00000114032071567117407550000006340279765427288473_" gradientUnits="userSpaceOnUse" x1="53.0775" y1="157.9694" x2="205.9575" y2="-39.7306" gradientTransform="matrix(1 0 0 -1 0 147.2912)">
		<stop  offset="0" style="stop-color:#CC3C90"/>
		<stop  offset="0.4" style="stop-color:#008ED1"/>
		<stop  offset="0.54" style="stop-color:#2BA498"/>
		<stop  offset="1" style="stop-color:#20A698"/>
	</linearGradient>
	<path style="fill:url(#SVGID_00000114032071567117407550000006340279765427288473_);" d="M82.6,63.9c4.2-2.3,8.8-5.4,12.6-9.5
		c1.8-2,3.4-4.1,4.7-6.3c2.3-3.9,3.8-8.5,4.5-13.6l0,0c0.7-5.2,0.5-10.2,0.1-14.2c-0.3-2.7-3.1-4.3-5.6-3.2c-3,1.3-6.5,3.1-9.9,5.4
		c1.6,4.8,2.4,9.5,2.4,14.1C91.3,47.2,87,56.8,82.6,63.9L82.6,63.9z"/>
</g>
<text transform="matrix(1 0 0 1 151.81 104.7596)" class="st9 st10 st11 st12">O</text>
<text transform="matrix(1 0 0 1 217.75 104.7596)" class="st9 st10 st11 st12">m</text>
<text transform="matrix(1 0 0 1 283.0701 104.7596)" class="st9 st10 st11 st13">n</text>
<text transform="matrix(1 0 0 1 325.85 104.7596)" class="st9 st10 st11 st13">i</text>
<text transform="matrix(1 0 0 1 345.45 104.7596)" class="st9 st10 st11 st14">M</text>
<text transform="matrix(1 0 0 1 424.59 104.7596)" class="st9 st10 st11 st12">e</text>
<text transform="matrix(1 0 0 1 458.71 104.7596)" class="st9 st10 st11 st15">m</text>
<text transform="matrix(1 0 0 1 522.7 104.7596)" class="st9 st10 st11 st15">o</text>
<text transform="matrix(1 0 0 1 562.4399 104.7596)" class="st9 st10 st11 st16">r</text>
<text transform="matrix(1 0 0 1 597.89 104.7596)" class="st9 st10 st11">y</text>
</svg>
